<?xml version="1.0" standalone="no"?>
<!DOCTYPE svg PUBLIC "-//W3C//DTD SVG 20010904//EN"
 "http://www.w3.org/TR/2001/REC-SVG-20010904/DTD/svg10.dtd">
<svg version="1.0" xmlns="http://www.w3.org/2000/svg"
 width="1080.000000pt" height="1080.000000pt" viewBox="0 0 1080.000000 1080.000000"
 preserveAspectRatio="xMidYMid meet">
<metadata>
Created by potrace 1.14, written by Peter Selinger 2001-2017
</metadata>
<g transform="translate(0.000000,1080.000000) scale(0.100000,-0.100000)"
fill="#000000" stroke="none">
<path d="M5467 9114 c-1 -1 -33 -5 -72 -8 -38 -3 -81 -8 -95 -10 -14 -3 -43
-7 -64 -11 -110 -16 -258 -63 -384 -121 -202 -93 -354 -208 -527 -398 -20 -21
-101 -131 -132 -178 -65 -97 -174 -348 -198 -454 -43 -193 -59 -322 -58 -479
0 -91 12 -290 18 -308 3 -7 6 -30 9 -52 8 -68 37 -196 63 -280 153 -483 484
-815 948 -950 49 -14 102 -28 119 -31 17 -3 49 -9 71 -14 73 -16 208 -25 375
-25 406 1 670 54 896 180 139 78 167 142 95 223 -16 18 -47 52 -68 76 -21 23
-60 68 -87 99 -73 84 -114 91 -224 38 -118 -59 -288 -105 -427 -118 -101 -9
-323 -9 -395 1 -308 39 -532 184 -682 441 -19 33 -39 74 -45 90 -7 17 -21 55
-32 85 -20 51 -44 151 -56 232 -20 131 -23 182 -21 333 2 94 6 184 10 200 3
17 11 53 17 80 6 28 22 86 36 129 115 368 448 642 843 694 106 14 492 4 520
-13 3 -2 21 -6 40 -9 140 -22 369 -119 471 -199 118 -94 207 -231 253 -390 33
-113 40 -175 40 -362 1 -305 -32 -472 -112 -557 -33 -36 -85 -37 -133 -5 -26
18 -36 33 -45 72 -7 33 -11 242 -11 606 -1 396 -4 562 -12 578 -25 46 -56 52
-291 51 -195 -1 -222 -3 -242 -19 -21 -17 -25 -17 -112 6 -126 34 -321 36
-449 5 -168 -41 -287 -109 -407 -232 -121 -123 -204 -295 -236 -484 -13 -80
-13 -352 0 -406 3 -14 9 -41 12 -60 17 -102 86 -261 149 -346 160 -213 409
-325 706 -318 163 4 265 36 414 129 39 24 83 46 98 49 37 6 85 -11 125 -46
151 -130 479 -165 663 -70 199 102 332 312 398 628 51 249 48 609 -8 855 -113
495 -482 860 -1010 999 -42 12 -91 23 -110 26 -48 8 -70 12 -89 18 -9 3 -42 7
-72 10 -30 3 -82 8 -115 12 -57 6 -363 13 -368 8z m200 -1263 c72 -20 134 -70
168 -135 30 -59 30 -60 33 -251 2 -178 1 -197 -20 -255 -39 -107 -125 -182
-226 -195 -151 -21 -248 15 -312 115 -53 83 -71 152 -74 285 -5 219 80 395
211 437 52 17 156 16 220 -1z"/>
<path d="M4383 5542 c-147 -173 -266 -398 -333 -628 l-21 -71 -347 -103 c-424
-126 -516 -154 -752 -224 -102 -30 -232 -69 -290 -86 -58 -17 -256 -76 -440
-131 -309 -92 -401 -119 -565 -169 -58 -18 -152 -45 -325 -97 -47 -13 -112
-33 -145 -43 -33 -10 -94 -28 -135 -40 l-74 -22 194 -95 c107 -52 267 -130
355 -173 88 -43 264 -128 390 -190 127 -62 307 -150 400 -195 94 -46 269 -131
390 -190 121 -59 306 -149 410 -200 105 -51 294 -143 420 -205 127 -62 307
-150 400 -195 94 -45 269 -131 390 -190 121 -59 288 -140 370 -180 83 -40 272
-132 420 -205 149 -72 344 -168 435 -211 91 -44 177 -87 192 -95 27 -15 32
-12 220 92 106 59 209 116 228 127 19 11 112 62 205 115 94 52 190 106 215
120 43 24 428 239 500 279 32 18 72 40 195 108 22 13 155 87 295 165 140 78
278 155 305 170 106 58 631 351 645 360 8 5 31 18 50 28 34 18 277 153 510
284 63 36 142 80 175 98 33 18 76 42 95 53 35 20 320 179 415 232 28 15 53 30
57 34 4 4 -45 25 -110 48 -64 22 -169 60 -232 83 -63 22 -158 56 -210 75 -52
18 -122 43 -155 55 -33 12 -148 53 -255 92 -107 38 -224 80 -260 93 -36 13
-123 45 -195 70 -171 61 -266 95 -400 143 -60 22 -249 90 -419 151 -170 60
-310 112 -313 114 -2 2 -5 13 -8 25 -45 238 -202 554 -363 732 -55 60 -49 60
-111 0 -15 -14 -86 -81 -158 -149 l-131 -123 53 -63 c53 -63 141 -202 133
-210 -2 -3 -33 6 -69 20 -35 13 -161 58 -279 100 -118 42 -264 96 -325 120
-141 56 -305 106 -318 98 -6 -4 -52 -10 -101 -14 -153 -13 -239 -38 -362 -104
-60 -32 -155 -66 -354 -125 -150 -45 -274 -79 -277 -77 -7 8 57 108 118 184
l58 71 -142 134 c-78 73 -157 147 -175 165 l-32 31 -57 -66z"/>
</g>
</svg>
